<svg width="243" height="240.00000000000003" xmlns="http://www.w3.org/2000/svg">

 <g>
  <title>background</title>
  <rect fill="none" id="canvas_background" height="402" width="582" y="-1" x="-1"/>
 </g>
 <g>
  <title>Layer 1</title>
  <path id="svg_1" fill="white" d="m65.4132,151.42c-12.1943,9.728 -20.691,23.25 -24.1041,38.36c0,1.43 -0.5111,3.28 0.6813,4.206c1.1925,0.925 3.407,0 4.8549,-1.01c2.3359,-1.731 4.5031,-3.675 6.4732,-5.804c5.6018,-6.272 10.2759,-13.296 13.8833,-20.862c1.9494,-3.232 3.1425,-6.854 3.4921,-10.6c0.12,-1.549 -0.368,-3.085 -1.3628,-4.29c-0.5389,-0.509 -1.2558,-0.793 -2.0015,-0.793c-0.7457,0 -1.4627,0.284 -2.0016,0.793"/>
  <path id="svg_2" fill="#B8B8B8" d="m43.4384,195.164c-0.7626,-0.005 -1.5054,-0.24 -2.1294,-0.673c-0.6433,-0.708 -1.0786,-1.575 -1.2587,-2.509c-0.1801,-0.935 -0.0983,-1.899 0.2367,-2.791c3.4102,-15.181 11.902,-28.784 24.1041,-38.612c0.3116,-0.337 0.6944,-0.602 1.1212,-0.776c0.4269,-0.175 0.8873,-0.254 1.3488,-0.233l0,0c1.151,0.002 2.2538,0.456 3.0662,1.261c1.1629,1.356 1.7436,3.107 1.6183,4.88c-0.2782,3.774 -1.4448,7.432 -3.4069,10.683c-3.6318,7.695 -8.3647,14.834 -14.0536,21.199c-2.0281,2.159 -4.2519,4.13 -6.6436,5.888c-1.119,0.968 -2.5214,1.557 -4.0031,1.683zm22.9117,-43.744c-12.1074,9.675 -20.4941,23.153 -23.7635,38.192c0,1.682 0,2.776 0,3.196c0,0.421 2.8959,-0.589 3.4922,-1.009c2.2852,-1.699 4.4221,-3.584 6.388,-5.636c5.5465,-6.217 10.1643,-13.186 13.7129,-20.694c1.914,-3.052 3.0536,-6.515 3.3218,-10.095c0.086,-1.207 -0.2775,-2.404 -1.0221,-3.365c-0.1874,-0.191 -0.4127,-0.342 -0.6618,-0.443c-0.2492,-0.102 -0.5168,-0.151 -0.7862,-0.146l-0.6813,0z"/>
  <path id="svg_3" fill="white" d="m74.4418,132.072c-1.2519,0.018 -2.4869,0.289 -3.6293,0.795c-1.1423,0.506 -2.168,1.238 -3.0142,2.149c-1.8058,1.434 -3.4352,3.071 -4.8549,4.879c-1.4288,1.82 -2.1265,4.097 -1.959,6.394c0.2282,1.28 0.6293,2.525 1.1924,3.701c0.8518,1.935 2.2145,4.122 4.3439,4.038c0.7944,-0.047 1.5605,-0.309 2.2145,-0.757c3.653,-1.865 6.6292,-4.805 8.5173,-8.413c0.9474,-1.776 1.4425,-3.754 1.4425,-5.762c0,-2.008 -0.4951,-3.986 -1.4425,-5.762c-0.5151,-1.061 -1.4335,-1.877 -2.5552,-2.272"/>
  <path id="svg_4" fill="#B8B8B8" d="m66.4358,155.122c-2.1294,0 -3.8328,-1.598 -5.2808,-4.711c-0.7091,-1.234 -1.226,-2.567 -1.5331,-3.954c-0.2621,-2.592 0.5009,-5.184 2.1293,-7.234c1.4537,-1.884 3.142,-3.58 5.0253,-5.047c1.7604,-1.763 4.0707,-2.889 6.5583,-3.197c0.016,-0.142 0.0649,-0.278 0.1428,-0.397c0.0779,-0.12 0.1827,-0.221 0.3063,-0.294c0.1236,-0.073 0.2627,-0.117 0.4064,-0.129c0.1437,-0.011 0.2882,0.01 0.4221,0.063c0.7109,0.203 1.3685,0.557 1.9273,1.036c0.5588,0.48 1.0056,1.073 1.3093,1.74c1.0295,1.932 1.5675,4.083 1.5675,6.267c0,2.184 -0.538,4.335 -1.5675,6.267c-2.0801,3.64 -5.2278,6.573 -9.0284,8.412c-0.8011,0.495 -1.7024,0.811 -2.6403,0.926l0.2555,0.252zm7.3249,-22.04c-1.985,0.307 -3.8115,1.253 -5.1956,2.692c-1.7756,1.375 -3.377,2.957 -4.7697,4.711c-1.2863,1.625 -1.9228,3.661 -1.7886,5.72c0.2257,1.163 0.5977,2.293 1.1072,3.365c1.0221,2.271 2.1293,3.449 3.3218,3.449c0.5873,-0.136 1.1583,-0.334 1.7034,-0.589c3.5787,-1.691 6.55,-4.421 8.5174,-7.823c0.8588,-1.638 1.307,-3.456 1.307,-5.3c0,-1.844 -0.4482,-3.662 -1.307,-5.3c-0.2725,-0.518 -0.6493,-0.976 -1.1073,-1.346c-0.1397,0.155 -0.3101,0.279 -0.5006,0.366c-0.1904,0.087 -0.3969,0.134 -0.6066,0.139l-0.6814,-0.084z"/>
  <path id="svg_5" fill="white" d="m76.0596,133.669c0,0 -18.2271,22.208 1.5332,59.811c19.7602,37.602 48.2082,38.275 62.8582,16.824c14.65,-21.451 29.896,-56.362 15.416,-76.298c-14.479,-19.937 -79.8074,-0.337 -79.8074,-0.337z"/>
  <path id="svg_6" fill="#B8B8B8" d="m116.091,225.951l-1.703,0c-14.139,-0.841 -27.5114,-12.113 -37.7322,-31.63c-7.9838,-13.561 -10.9918,-29.425 -8.5174,-44.921c0.9998,-5.876 3.3289,-11.455 6.8139,-16.319c0,0 0,0 0.5111,0c2.7255,-0.842 66.0946,-19.517 80.9996,0.757c14.906,20.273 -2.299,58.885 -15.416,78.065c-2.698,4.161 -6.379,7.613 -10.726,10.06c-4.347,2.447 -9.23,3.816 -14.23,3.988l0,0zm-39.4352,-91.356c-3.1329,4.587 -5.2516,9.775 -6.2177,15.226c-2.2813,15.005 0.7256,30.329 8.5174,43.407c9.8801,18.927 22.6565,29.779 36.0285,30.62c4.928,0.042 9.781,-1.185 14.083,-3.56c4.301,-2.375 7.902,-5.816 10.447,-9.983c12.861,-18.423 30.492,-55.184 15.416,-75.71c-13.457,-18.255 -73.249,-1.514 -78.2742,0z"/>
  <path id="svg_7" fill="white" d="m46.9307,189.863c0.8966,-3.624 2.0931,-7.169 3.5772,-10.599c2.8187,-5.919 6.2132,-11.554 10.1357,-16.825"/>
  <path id="svg_8" fill="#B8B8B8" d="m46.9306,190.872c-0.2538,-0.093 -0.468,-0.268 -0.6073,-0.498c-0.1394,-0.229 -0.1955,-0.498 -0.1592,-0.763c0.985,-3.674 2.2375,-7.273 3.7476,-10.768c2.7982,-5.948 6.2241,-11.587 10.2208,-16.824c0.1827,-0.165 0.416,-0.265 0.6626,-0.283c0.2467,-0.019 0.4926,0.045 0.6984,0.18c0.2059,0.136 0.3598,0.335 0.4373,0.567c0.0775,0.232 0.0741,0.483 -0.0096,0.713c-3.898,5.122 -7.2651,10.617 -10.0505,16.404c-1.451,3.385 -2.6467,6.872 -3.5773,10.431c-0.0299,0.146 -0.0895,0.284 -0.1752,0.406c-0.0856,0.122 -0.1956,0.225 -0.3231,0.304c-0.1275,0.079 -0.2699,0.131 -0.4185,0.154c-0.1487,0.022 -0.3004,0.015 -0.446,-0.023l0,0z"/>
  <path id="svg_9" fill="white" d="m162.682,139.223c-3.41,0.409 -6.646,1.717 -9.369,3.785c-2.657,2.093 -4.421,5.095 -4.941,8.412c-0.181,2.379 0.353,4.757 1.535,6.837c1.182,2.081 2.959,3.77 5.109,4.856c2.176,1.054 4.593,1.531 7.012,1.384c2.419,-0.148 4.758,-0.914 6.786,-2.225c2.139,-1.296 3.705,-3.341 4.384,-5.727c0.678,-2.386 0.421,-4.937 -0.721,-7.144c-1.579,-4.104 -4.603,-7.509 -8.518,-9.589"/>
  <path id="svg_10" fill="#B8B8B8" d="m160.978,165.72c-2.239,0.006 -4.451,-0.482 -6.473,-1.43c-2.364,-1.194 -4.315,-3.055 -5.604,-5.347c-1.29,-2.292 -1.859,-4.911 -1.636,-7.524c0.211,-1.824 0.787,-3.589 1.693,-5.191c0.907,-1.603 2.126,-3.013 3.588,-4.147c2.886,-2.205 6.336,-3.574 9.965,-3.953c0.129,-0.038 0.265,-0.048 0.398,-0.029c0.133,0.019 0.261,0.066 0.374,0.138c0.113,0.072 0.209,0.167 0.282,0.278c0.072,0.112 0.12,0.238 0.139,0.37l0.766,0c4.115,2.23 7.287,5.84 8.943,10.178c0.727,1.778 1.028,3.697 0.88,5.609c-0.147,1.911 -0.74,3.763 -1.731,5.411c-0.84,1.233 -1.946,2.267 -3.237,3.029c-2.455,1.675 -5.363,2.583 -8.347,2.608l0,0zm1.959,-25.237c-3.252,0.348 -6.345,1.57 -8.943,3.533c-2.5,1.947 -4.122,4.788 -4.514,7.908c-0.163,2.17 0.323,4.339 1.398,6.239c1.075,1.899 2.692,3.444 4.649,4.444c2.001,0.984 4.231,1.424 6.461,1.276c2.23,-0.148 4.38,-0.878 6.23,-2.117c1.077,-0.608 2.008,-1.44 2.725,-2.44c0.787,-1.373 1.242,-2.908 1.331,-4.483c0.089,-1.576 -0.192,-3.151 -0.82,-4.602c-1.421,-3.886 -4.24,-7.12 -7.921,-9.085c-0.102,-0.02 -0.198,-0.06 -0.284,-0.118c-0.086,-0.057 -0.159,-0.132 -0.215,-0.218c-0.055,-0.087 -0.093,-0.184 -0.11,-0.285c-0.016,-0.101 -0.012,-0.205 0.013,-0.304l0,0.252z"/>
  <path id="svg_11" fill="white" d="m170.347,164.795c-0.681,-1.009 -2.896,-2.103 -4.003,-1.514c-0.571,0.294 -1.066,0.711 -1.45,1.221c-0.383,0.51 -0.645,1.099 -0.765,1.723c-2.725,33.144 8.518,41.22 12.436,47.781c0.384,0.525 0.901,0.941 1.498,1.207c0.598,0.265 1.256,0.372 1.908,0.308c0.852,0 1.193,-1.178 1.448,-1.935c1.322,-6.412 1.322,-13.021 0,-19.432c-0.376,-5.309 -1.231,-10.573 -2.555,-15.731c-1.509,-5.233 -4.458,-9.95 -8.517,-13.628"/>
  <path id="svg_12" fill="#B8B8B8" d="m179.461,216.615c-0.763,-0.022 -1.509,-0.225 -2.176,-0.591c-0.667,-0.366 -1.235,-0.884 -1.657,-1.512c-0.596,-1.01 -1.448,-2.103 -2.385,-3.449c-4.684,-6.309 -12.52,-16.825 -10.136,-44.921c0.108,-0.803 0.412,-1.568 0.887,-2.227c0.475,-0.66 1.107,-1.195 1.839,-1.559c1.704,-0.925 4.344,0.505 5.281,1.767c4.092,3.787 7.04,8.621 8.517,13.964c1.527,5.189 2.525,10.515 2.981,15.899c1.359,6.55 1.359,13.303 0,19.853c-0.111,0.596 -0.372,1.155 -0.759,1.625c-0.387,0.47 -0.887,0.837 -1.455,1.067l-0.937,0.084zm-12.35,-52.492c-0.426,0.19 -0.796,0.482 -1.079,0.849c-0.283,0.367 -0.468,0.798 -0.54,1.254c-2.555,27.255 4.855,37.098 9.455,44.08c0.945,1.138 1.799,2.348 2.555,3.617c0.253,0.334 0.591,0.596 0.98,0.758c0.389,0.163 0.815,0.221 1.234,0.167c0,0 0,0 0.682,-1.177c1.32,-6.271 1.32,-12.742 0,-19.012c-0.461,-5.267 -1.431,-10.478 -2.896,-15.563c-1.441,-4.994 -4.239,-9.504 -8.092,-13.038l0,0c-0.488,-0.912 -1.311,-1.604 -2.299,-1.935l0,0z"/>
  <path id="svg_13" fill="white" d="m167.536,173.795c0.116,10.452 2.774,20.723 7.751,29.947l-7.751,-29.947z"/>
  <path id="svg_14" fill="#B8B8B8" d="m175.287,204.753c-0.187,0.001 -0.371,-0.045 -0.534,-0.133c-0.164,-0.088 -0.303,-0.216 -0.403,-0.371c-5.025,-9.366 -7.739,-19.771 -7.921,-30.368c0,-0.29 0.116,-0.569 0.324,-0.774c0.208,-0.205 0.489,-0.32 0.783,-0.32l0,0c0.271,0 0.531,0.106 0.723,0.296c0.191,0.189 0.299,0.446 0.299,0.714c0.167,10.274 2.794,20.363 7.666,29.442c0.125,0.248 0.151,0.533 0.072,0.798c-0.079,0.265 -0.257,0.491 -0.498,0.632l-0.511,0.084z"/>
  <path id="svg_15" fill="white" d="m116.091,154.027c27.142,0 49.146,-21.882 49.146,-48.875c0,-26.9926 -22.004,-48.8747 -49.146,-48.8747c-27.1417,0 -49.1447,21.8821 -49.1447,48.8747c0,26.993 22.003,48.875 49.1447,48.875z"/>
  <path id="svg_16" fill="#B8B8B8" d="m116.091,155.121c-10.024,0.083 -19.847,-2.777 -28.2229,-8.216c-8.3758,-5.44 -14.9267,-13.215 -18.8213,-22.337c-3.8947,-9.123 -4.9575,-19.183 -3.0537,-28.9037c1.9037,-9.7205 6.6884,-18.6633 13.7467,-25.6937c7.0583,-7.0303 16.0721,-11.8313 25.8972,-13.7937c9.826,-1.9623 20.02,-0.9977 29.29,2.7716c9.269,3.7694 17.196,10.1734 22.774,18.3996c5.579,8.2261 8.557,17.9035 8.557,27.8039c0.046,13.194 -5.212,25.866 -14.617,35.234c-9.406,9.369 -22.192,14.668 -35.55,14.735zm0,-97.8342c-9.603,-0.0833 -19.0142,2.653 -27.0398,7.8616c-8.0257,5.2086 -14.3036,12.6546 -18.0371,21.3932c-3.7335,8.7386 -4.7542,18.3754 -2.9326,27.6884c1.8216,9.312 6.4034,17.88 13.1639,24.617c6.7605,6.736 15.3949,11.337 24.8076,13.218c9.412,1.881 19.178,0.958 28.059,-2.652c8.88,-3.61 16.475,-9.745 21.819,-17.625c5.344,-7.88 8.198,-17.151 8.198,-26.636c0.045,-12.6353 -4.988,-24.7724 -13.994,-33.7465c-9.007,-8.9741 -21.25,-14.0519 -34.044,-14.1187l0,0z"/>
  <path id="svg_17" fill="#B8B8B8" d="m143.475,136.768c7.272,-13.86 -2.375,-33.049 -21.546,-42.8596c-19.171,-9.8103 -40.6063,-6.5272 -47.8776,7.3336c-7.2712,13.86 2.3754,33.049 21.5463,42.859c19.1713,9.81 40.6063,6.527 47.8773,-7.333z"/>
  <path id="svg_18" fill="#B8B8B8" d="m141.133,148.055c-0.25,0.078 -0.517,0.078 -0.767,0c-0.197,-0.203 -0.308,-0.475 -0.308,-0.757c0,-0.282 0.111,-0.553 0.308,-0.757c4.603,-3.501 7.656,-8.626 8.518,-14.301c-0.126,-1.174 -0.126,-2.358 0,-3.533l0,-1.262c0.035,-3.706 -0.511,-7.394 -1.619,-10.935c-1.163,-3.612 -2.734,-7.083 -4.684,-10.347c-1.89,-3.206 -4.341,-6.055 -7.24,-8.4127l-5.706,-4.7949c-0.181,-0.2121 -0.28,-0.4802 -0.28,-0.7571c0,-0.2769 0.099,-0.545 0.28,-0.7571c0.206,-0.1954 0.48,-0.3045 0.766,-0.3045c0.286,0 0.56,0.1091 0.767,0.3045l5.706,4.7949c3.057,2.315 5.656,5.1669 7.666,8.4119c2.085,3.377 3.744,6.993 4.94,10.768c1.185,3.756 1.76,7.675 1.703,11.609c0.043,0.419 0.043,0.842 0,1.262c-0.085,1.092 -0.085,2.188 0,3.28c-0.912,6.388 -4.34,12.163 -9.539,16.068c-0.113,0.197 -0.294,0.347 -0.511,0.42z"/>
  <path id="svg_19" fill="#B8B8B8" d="m130.656,210.978l-0.682,0c-0.198,-0.203 -0.308,-0.475 -0.308,-0.757c0,-0.282 0.11,-0.553 0.308,-0.757c7.2,-8.504 12.953,-18.107 17.035,-28.433c0.047,-0.13 0.12,-0.248 0.215,-0.349c0.095,-0.101 0.21,-0.181 0.338,-0.236c0.127,-0.055 0.265,-0.084 0.404,-0.085c0.14,0 0.278,0.027 0.406,0.081c0.139,0.034 0.269,0.099 0.379,0.191c0.11,0.091 0.198,0.206 0.255,0.337c0.058,0.13 0.084,0.271 0.078,0.413c-0.007,0.142 -0.046,0.281 -0.116,0.405c-4.058,10.517 -9.811,20.317 -17.035,29.022c-0.161,0.169 -0.376,0.277 -0.608,0.308c-0.233,0.031 -0.469,-0.019 -0.669,-0.14z"/>
  <path id="svg_20" fill="white" d="m117.539,136.615c-3.407,-4.543 -8.517,-10.936 -13.713,-16.825c-5.1954,-5.888 -10.3058,-12.618 -13.7127,-16.824l1.0221,-0.757c3.4069,4.543 8.5173,10.936 13.7126,16.824c5.196,5.889 10.306,12.535 13.713,16.825l-1.022,0.757z"/>
  <path id="svg_21" fill="white" d="m85.1738,127.108l0,-0.925c6.6707,-2.217 13.0255,-5.27 18.9082,-9.085l2.385,-1.346c2.641,-1.599 5.366,-2.86 8.092,-4.206l5.706,-2.776l0.597,1.177l-5.963,2.86c-2.725,1.262 -5.451,2.608 -8.091,4.122l-2.3,1.346c-6.0362,3.748 -12.5339,6.716 -19.3342,8.833l0,0z"/>
  <path id="svg_22" fill="#B8B8B8" d="m126.483,46.4362l-0.511,0c-0.256,-0.1269 -0.452,-0.3467 -0.548,-0.6134c-0.095,-0.2666 -0.082,-0.5593 0.037,-0.8167c1.882,-3.8362 4.654,-7.1796 8.091,-9.7581c1.852,-1.5729 4.134,-2.5682 6.559,-2.8602c0.982,-0.2119 1.998,-0.2119 2.981,0l1.022,-0.7571c2.579,-1.5121 5.517,-2.3246 8.517,-2.3554c3.402,-0.1844 6.813,0.0987 10.136,0.8412c0.271,0.0558 0.508,0.2156 0.66,0.4444c0.152,0.2287 0.205,0.5077 0.149,0.7754c-0.057,0.2677 -0.218,0.5023 -0.45,0.6522c-0.232,0.1499 -0.514,0.2027 -0.785,0.147c-3.132,-0.6693 -6.34,-0.9239 -9.54,-0.7571c-2.609,0.0013 -5.169,0.6988 -7.41,2.0189l0,0c0.696,0.5001 1.253,1.1656 1.619,1.9348c0.338,0.6807 0.514,1.4289 0.514,2.1872c0,0.7582 -0.176,1.5064 -0.514,2.1871c-0.283,0.5909 -0.698,1.1103 -1.215,1.5185c-0.517,0.4082 -1.121,0.6945 -1.766,0.8369c-0.407,0.1144 -0.834,0.1369 -1.25,0.0657c-0.416,-0.0711 -0.811,-0.2339 -1.155,-0.4764c-0.343,-0.2425 -0.627,-0.5584 -0.83,-0.9242c-0.204,-0.3658 -0.321,-0.7721 -0.343,-1.1887c-0.299,-1.917 0.159,-3.8742 1.278,-5.4679l-1.193,0c-2.015,0.2817 -3.907,1.1283 -5.451,2.4395c-3.174,2.4777 -5.688,5.6829 -7.325,9.3375c-0.095,0.2414 -0.281,0.4372 -0.519,0.5469c-0.238,0.1096 -0.509,0.1246 -0.758,0.042l0,0zm17.034,-11.2724c-0.524,0.5945 -0.916,1.291 -1.151,2.0444c-0.234,0.7535 -0.307,1.5473 -0.211,2.33c-0.062,0.2487 -0.062,0.5084 0,0.7571c0.247,0.0901 0.519,0.0901 0.766,0c0.394,0.0029 0.781,-0.1067 1.113,-0.3156c0.333,-0.2089 0.597,-0.5083 0.761,-0.8621c0.189,-0.3944 0.288,-0.8254 0.288,-1.2619c0,-0.4364 -0.099,-0.8674 -0.288,-1.2618c-0.282,-0.5599 -0.69,-1.0489 -1.192,-1.4301l-0.086,0z"/>
  <path id="svg_23" fill="#B8B8B8" d="m75.208,46.8559c-0.2068,-0.0053 -0.407,-0.0725 -0.5743,-0.1927c-0.1673,-0.1201 -0.2937,-0.2876 -0.3626,-0.4802c-1.701,-3.9032 -3.7534,-7.6476 -6.1325,-11.1883c-0.1738,-0.1986 -0.2695,-0.4524 -0.2695,-0.715c0,-0.2626 0.0957,-0.5164 0.2695,-0.715c0.2148,-0.1781 0.4862,-0.2756 0.7666,-0.2756c0.2804,0 0.5518,0.0975 0.7665,0.2756c2.6664,3.7202 5.0031,7.6605 6.9843,11.777c0.0921,0.2693 0.0824,0.5624 -0.0272,0.8253c-0.1095,0.2628 -0.3117,0.4776 -0.569,0.6048l-0.8518,0.0841z"/>
  <path id="svg_24" fill="#B8B8B8" d="m172.135,82.6077c-0.248,0.0833 -0.518,0.0833 -0.766,0c-0.198,-0.2037 -0.308,-0.4749 -0.308,-0.7571c0,-0.2822 0.11,-0.5535 0.308,-0.7571c4.457,-4.4301 9.96,-7.6966 16.012,-9.5058c0.271,-0.0534 0.551,-0.0054 0.787,0.1346c0.237,0.14 0.412,0.3619 0.491,0.6225c0.039,0.127 0.053,0.2605 0.04,0.3927c-0.013,0.1323 -0.052,0.2607 -0.115,0.3779c-0.064,0.1172 -0.15,0.221 -0.254,0.3053c-0.104,0.0843 -0.224,0.1474 -0.352,0.1859c-5.551,1.5923 -10.633,4.4772 -14.821,8.4122l-1.022,0.5889z"/>
  <text style="cursor: move;" font-weight="bold" xml:space="preserve" text-anchor="start" font-family="Helvetica, Arial, sans-serif" font-size="24" id="svg_29" y="183.56861" x="89.028743" stroke-width="0" fill="#B8B8B8">404</text>
 </g>
</svg>