<svg version="1.1" id="Layer_1" xmlns="http://www.w3.org/2000/svg" xmlns:xlink="http://www.w3.org/1999/xlink" x="0px" y="0px" viewBox="0 0 500 500" style="width: 158px;" xml:space="preserve" data-imageid="data-analysis-1-39" imageName="Data Analysis 1" class="illustrations_image">
<style type="text/css">
	.st0_data-analysis-1-39{fill:#FFC2A4;}
	.st1_data-analysis-1-39{fill:url(#SVGID_1_);}
	.st2_data-analysis-1-39{fill:url(#SVGID_00000115497715198291157970000011539798507617032895_);}
	.st3_data-analysis-1-39{fill:url(#SVGID_00000181078393510724140240000000438597754031131294_);}
	.st4_data-analysis-1-39{fill:#68E1FD;}
	.st5_data-analysis-1-39{opacity:0.44;fill:#053855;enable-background:new    ;}
	.st6_data-analysis-1-39{opacity:0.1;fill:#053855;enable-background:new    ;}
	.st7_data-analysis-1-39{fill:#5FAD00;}
	.st8_data-analysis-1-39{fill:#053855;}
	.st9_data-analysis-1-39{fill:#6969BC;}
	.st10_data-analysis-1-39{fill:#FFFFFF;}
	.st11_data-analysis-1-39{fill:#42210B;}
	.st12_data-analysis-1-39{fill:#DD6F31;}
	.st13_data-analysis-1-39{fill:#FFE427;}
	.st14_data-analysis-1-39{fill:#FCBF81;}
	.st15_data-analysis-1-39{opacity:0.2;fill:#053855;enable-background:new    ;}
</style>
<g id="background_data-analysis-1-39">
	<path class="st0_data-analysis-1-39" d="M243.1,397.5l-225.1-133c-7.2-4-13.3-10.6-6.3-15l225.9-130.2c3.4-2.1,8.5-3.5,12-1.5L485.9,255&#10;&#9;&#9;c7.2,4.2,8.5,15.8,1.3,20L272.7,397.3C263.6,402.6,252.3,402.7,243.1,397.5z"/>
	
		<linearGradient id="SVGID_1_-data-analysis-1-39" gradientUnits="userSpaceOnUse" x1="333.1395" y1="196.2325" x2="361.0295" y2="243.2725" gradientTransform="matrix(1 0 0 -1 0 502)">
		<stop offset="0" style="stop-color:#FFC2A4"/>
		<stop offset="1" style="stop-color:#DD6F31"/>
	</linearGradient>
	<path class="st1_data-analysis-1-39" d="M315,245.7l-5.9,0.6l-35,21.7c-14.5,11.7-0.4,13.4,7.1,18.2c4.4,2.8,73.3,48.4,77.7,51.1l56.8-30.2&#10;&#9;&#9;C405.4,301.4,325.1,251.8,315,245.7z"/>
	
		<linearGradient id="SVGID_00000026860816644266627530000017896379898200366769_-data-analysis-1-39" gradientUnits="userSpaceOnUse" x1="39.1262" y1="236.1311" x2="62.0862" y2="252.1211" gradientTransform="matrix(1 0 0 -1 0 502)">
		<stop offset="0" style="stop-color:#FFC2A4"/>
		<stop offset="1" style="stop-color:#DD6F31"/>
	</linearGradient>
	<path style="fill:url(#SVGID_00000026860816644266627530000017896379898200366769_);" d="M46.9,278l31.4-22.2&#10;&#9;&#9;c-9.2-4.4-10.5-8.8-17.7-15.9c-11.9,7.4-28,15.6-42.5,23C27.9,267.7,37.7,272.3,46.9,278z"/>
	
		<linearGradient id="SVGID_00000133528252582205261390000014263720083953076636_-data-analysis-1-39" gradientUnits="userSpaceOnUse" x1="171.4227" y1="159.7261" x2="225.7327" y2="209.3261" gradientTransform="matrix(1 0 0 -1 0 502)">
		<stop offset="0" style="stop-color:#FFC2A4"/>
		<stop offset="1" style="stop-color:#DD6F31"/>
	</linearGradient>
	<path style="fill:url(#SVGID_00000133528252582205261390000014263720083953076636_);" d="M202.2,292.6c-18.4,10.8-31.6,18-60,34.2&#10;&#9;&#9;c21.5,13,38.1,25.1,40.6,26.5l63.8-37.4C241.5,313.2,225.2,304,202.2,292.6z"/>
</g>
<g id="gear_data-analysis-1-39">
	<path class="st4_data-analysis-1-39 targetColor" d="M95.5,178.3c0.1,0.2,0.6,2,0.9,1.6s2.3,0.5,2.3,0.5l5.5-7l-0.7-2.3h-4.9" style="fill: rgb(104, 225, 253);"/>
	<path class="st4_data-analysis-1-39 targetColor" d="M122,148.3l0.5-1.8l5.8-3.1v-9.8c0-0.2-5.6,3.3-5.6,3.3l-0.3-0.5c-0.3-1.5-0.9-2.9-1.7-4.2l4.1-7.5l-5.2-3.9&#10;&#9;&#9;l-3.9,7.7l0,0c-1.4-0.3-2.9-0.3-4.2,0.1v-7.4l-7.5,4.1v7.8c-1.4,1.4-2.8,2.9-3.9,4.5l-4.4-2.8l-5,9.6l4,3.2l-0.3,1.6&#10;&#9;&#9;c-0.5,1.7-0.9,3.4-1.3,5.2l-5.9,3.2v9.8l5.6-3.4c0.2,1.8,0.9,3.5,1.8,5l-4.2,7.2l5.3,4.1l3.8-7.4h4.7v7.4l7-4.3v-7.2&#10;&#9;&#9;c1.6-1.6,3-3.3,4.2-5.3l4.3,2.9l5.1-9.8l-4.2-3.1l0.4-1.5C121.4,150.5,121.7,149.4,122,148.3z" style="fill: rgb(104, 225, 253);"/>
	<polyline class="st4_data-analysis-1-39 targetColor" points="135.3,137.6 128.8,133.6 127.2,136 129.7,141.3 &#9;" style="fill: rgb(104, 225, 253);"/>
	<polyline class="st4_data-analysis-1-39 targetColor" points="126.8,170.1 122,168.1 122,165.2 &#9;" style="fill: rgb(104, 225, 253);"/>
	<polygon class="st4_data-analysis-1-39 targetColor" points="111.3,184 104.2,179.9 106,174.5 112.4,176.4 &#9;" style="fill: rgb(104, 225, 253);"/>
	<polygon class="st4_data-analysis-1-39 targetColor" points="119.6,120.5 126.7,124.6 122.8,132.4 118.6,132.5 117.6,124.6 &#9;" style="fill: rgb(104, 225, 253);"/>
	
		<ellipse transform="matrix(0.3657 -0.9307 0.9307 0.3657 -70.5679 205.191)" class="st4_data-analysis-1-39 targetColor" cx="115.3" cy="154.4" rx="5.5" ry="3.2" style="fill: rgb(104, 225, 253);"/>
	<polygon class="st4_data-analysis-1-39 targetColor" points="104.1,125 111.2,129.1 118.6,125 111.5,120.9 &#9;" style="fill: rgb(104, 225, 253);"/>
	<polygon class="st4_data-analysis-1-39 targetColor" points="102.8,138.6 95.7,134.5 90.7,144.1 97.8,148.1 &#9;" style="fill: rgb(104, 225, 253);"/>
	<polygon class="st4_data-analysis-1-39 targetColor" points="90.4,175.9 97.5,179.9 102.8,184 95.7,179.9 &#9;" style="fill: rgb(104, 225, 253);"/>
	<path class="st5_data-analysis-1-39" d="M95.5,178.3c0.1,0.2,0.6,2,0.9,1.6s2.3,0.5,2.3,0.5l5.5-7l-0.7-2.3h-4.9"/>
	<path class="st4_data-analysis-1-39 targetColor" d="M122,148.3l0.5-1.8l5.8-3.1v-9.8c0-0.2-5.6,3.3-5.6,3.3l-0.3-0.5c-0.3-1.5-0.9-2.9-1.7-4.2l4.1-7.5l-5.2-3.9&#10;&#9;&#9;l-3.9,7.7l0,0c-1.4-0.3-2.9-0.3-4.2,0.1v-7.4l-7.5,4.1v7.8c-1.4,1.4-2.8,2.9-3.9,4.5l-4.4-2.8l-5,9.6l4,3.2l-0.3,1.6&#10;&#9;&#9;c-0.5,1.7-0.9,3.4-1.3,5.2l-5.9,3.2v9.8l5.6-3.4c0.2,1.8,0.9,3.5,1.8,5l-4.2,7.2l5.3,4.1l3.8-7.4h4.7v7.4l7-4.3v-7.2&#10;&#9;&#9;c1.6-1.6,3-3.3,4.2-5.3l4.3,2.9l5.1-9.8l-4.2-3.1l0.4-1.5C121.4,150.5,121.7,149.4,122,148.3z" style="fill: rgb(104, 225, 253);"/>
	<polyline class="st5_data-analysis-1-39" points="135.3,137.6 128.8,133.6 127.2,136 129.7,141.3 &#9;"/>
	<polyline class="st4_data-analysis-1-39 targetColor" points="126.8,170.1 122,168.1 122,165.2 &#9;" style="fill: rgb(104, 225, 253);"/>
	<polygon class="st4_data-analysis-1-39 targetColor" points="111.3,184 104.2,179.9 106,174.5 112.4,176.4 &#9;" style="fill: rgb(104, 225, 253);"/>
	<polygon class="st4_data-analysis-1-39 targetColor" points="119.6,120.5 126.7,124.6 122.8,132.4 118.6,132.5 117.6,124.6 &#9;" style="fill: rgb(104, 225, 253);"/>
	
		<ellipse transform="matrix(0.3657 -0.9307 0.9307 0.3657 -70.5679 205.191)" class="st4_data-analysis-1-39 targetColor" cx="115.3" cy="154.4" rx="5.5" ry="3.2" style="fill: rgb(104, 225, 253);"/>
	<polygon class="st4_data-analysis-1-39 targetColor" points="102.8,138.6 95.7,134.5 90.7,144.1 97.8,148.1 &#9;" style="fill: rgb(104, 225, 253);"/>
	<polygon class="st4_data-analysis-1-39 targetColor" points="90.4,175.9 97.5,179.9 102.8,184 95.7,179.9 &#9;" style="fill: rgb(104, 225, 253);"/>
	<path class="st5_data-analysis-1-39" d="M122,148.3l0.5-1.8l5.8-3.1v-9.8c0-0.2-5.6,3.3-5.6,3.3l-0.3-0.5c-0.3-1.5-0.9-2.9-1.7-4.2l4.1-7.5l-5.2-3.9&#10;&#9;&#9;l-3.9,7.7l0,0c-1.4-0.3-2.9-0.3-4.2,0.1v-7.4l-7.5,4.1v7.8c-1.4,1.4-2.8,2.9-3.9,4.5l-4.4-2.8l-5,9.6l4,3.2l-0.3,1.6&#10;&#9;&#9;c-0.5,1.7-0.9,3.4-1.3,5.2l-5.9,3.2v9.8l5.6-3.4c0.2,1.8,0.9,3.5,1.8,5l-4.2,7.2l5.3,4.1l3.8-7.4h4.7v7.4l7-4.3v-7.2&#10;&#9;&#9;c1.6-1.6,3-3.3,4.2-5.3l4.3,2.9l5.1-9.8l-4.2-3.1l0.4-1.5C121.4,150.5,121.7,149.4,122,148.3z"/>
	<polyline class="st6_data-analysis-1-39" points="126.8,170.1 122,168.1 122,165.2 &#9;"/>
	<polygon class="st6_data-analysis-1-39" points="111.3,184 104.2,179.9 106,174.5 112.4,176.4 &#9;"/>
	
		<ellipse transform="matrix(0.3657 -0.9307 0.9307 0.3657 -70.5679 205.191)" class="st6_data-analysis-1-39" cx="115.3" cy="154.4" rx="5.5" ry="3.2"/>
	<polygon class="st6_data-analysis-1-39" points="102.8,138.6 95.7,134.5 90.7,144.1 97.8,148.1 &#9;"/>
	<polygon class="st6_data-analysis-1-39" points="90.4,175.9 97.5,179.9 102.8,184 95.7,179.9 &#9;"/>
	<polyline class="st6_data-analysis-1-39" points="126.8,170.1 122,168.1 122,165.2 &#9;"/>
	<polygon class="st5_data-analysis-1-39" points="111.3,184 104.2,179.9 106,174.5 112.4,176.4 &#9;"/>
	<path class="st4_data-analysis-1-39 targetColor" d="M129,152.3l0.5-1.8l5.8-3.1v-9.8c0-0.2-5.6,3.3-5.6,3.3l-0.3-0.5c-0.3-1.5-0.9-2.9-1.7-4.2l4.1-7.5l-5.2-3.9&#10;&#9;&#9;l-3.9,7.7l0,0c-1.4-0.3-2.9-0.3-4.2,0.1V125l-7.4,4.1v7.8c-1.4,1.4-2.8,2.9-3.9,4.5l-4.4-2.8l-5,9.6l4,3.2l-0.3,1.6&#10;&#9;&#9;c-0.5,1.7-0.9,3.4-1.2,5.2l-5.9,3.3v9.8l5.6-3.4c0.2,1.8,0.9,3.5,1.8,5l-4.2,7.2l5.3,4.1l3.8-7.4h4.7v7.4l7-4.3v-7.2&#10;&#9;&#9;c1.6-1.6,3-3.3,4.2-5.3l4.2,2.9l5.1-9.8l-4.2-3.1l0.4-1.5C128.5,154.6,128.8,153.5,129,152.3z" style="fill: rgb(104, 225, 253);"/>
	
		<ellipse transform="matrix(0.3657 -0.9307 0.9307 0.3657 -70.5679 205.191)" class="st5_data-analysis-1-39" cx="115.3" cy="154.4" rx="5.5" ry="3.2"/>
	<polygon class="st5_data-analysis-1-39" points="90.4,175.9 97.5,179.9 102.8,184 95.7,179.9 &#9;"/>
	<polygon class="st4_data-analysis-1-39 targetColor" points="104.1,125 111.2,129.1 118.6,125 111.5,120.9 &#9;" style="fill: rgb(104, 225, 253);"/>
	<polygon class="st5_data-analysis-1-39" points="104.1,125 111.2,129.1 118.6,125.1 111.5,120.9 &#9;"/>
	<polygon class="st4_data-analysis-1-39 targetColor" points="87.2,157.2 94.2,161.3 94.2,171.1 87.2,167 &#9;" style="fill: rgb(104, 225, 253);"/>
	<polygon class="st5_data-analysis-1-39" points="87.2,157.2 94.2,161.3 94.2,171.1 87.2,167 &#9;"/>
	<path class="st4_data-analysis-1-39 targetColor" d="M134.2,119.7c0.1,0.2,0.4,1.6,0.7,1.3s1.9,0.4,1.9,0.4l4.4-5.5l-0.6-1.8h-3.9" style="fill: rgb(104, 225, 253);"/>
	<path class="st4_data-analysis-1-39 targetColor" d="M155.3,95.8l0.4-1.4l4.6-2.5v-7.8c0-0.2-4.4,2.6-4.4,2.6l-0.2-0.4c-0.2-1.2-0.7-2.3-1.3-3.4l3.2-6l-4.1-3.1&#10;&#9;&#9;l-3.1,6.1l0,0c-1.1-0.3-2.3-0.2-3.4,0.1v-5.8l-5.9,3.2v6.2c-1.1,1.1-2.2,2.3-3.1,3.6l-3.5-2.2l-4,7.6l3.1,2.6l-0.3,1.3&#10;&#9;&#9;c-0.4,1.3-0.8,2.7-1,4.1l-4.7,2.6v7.8l4.5-2.7c0.2,1.4,0.7,2.8,1.4,4l-3.4,5.7l4.2,3.2l3-5.8h3.7v5.8l5.6-3.4v-5.8&#10;&#9;&#9;c1.3-1.3,2.4-2.7,3.4-4.2l3.4,2.3l4.1-7.8l-3.4-2.5l0.3-1.2C154.8,97.6,155.1,96.7,155.3,95.8z" style="fill: rgb(104, 225, 253);"/>
	<polyline class="st4_data-analysis-1-39 targetColor" points="165.9,87.3 160.7,84.2 159.4,86.1 161.4,90.3 &#9;" style="fill: rgb(104, 225, 253);"/>
	<polyline class="st4_data-analysis-1-39 targetColor" points="159.1,113.1 155.3,111.5 155.3,109.2 &#9;" style="fill: rgb(104, 225, 253);"/>
	<polygon class="st4_data-analysis-1-39 targetColor" points="146.8,124.2 141.1,120.9 142.6,116.7 147.6,118.2 &#9;" style="fill: rgb(104, 225, 253);"/>
	<polygon class="st4_data-analysis-1-39 targetColor" points="153.4,73.8 159,77 155.9,83.2 152.6,83.2 151.8,77 &#9;" style="fill: rgb(104, 225, 253);"/>
	<ellipse transform="matrix(0.3657 -0.9307 0.9307 0.3657 1.4392 203.3969)" class="st4_data-analysis-1-39 targetColor" cx="149.9" cy="100.6" rx="4.4" ry="2.5" style="fill: rgb(104, 225, 253);"/>
	<polygon class="st4_data-analysis-1-39 targetColor" points="141.1,77.3 146.7,80.6 152.6,77.3 146.9,74.1 &#9;" style="fill: rgb(104, 225, 253);"/>
	<polygon class="st4_data-analysis-1-39 targetColor" points="140,88.1 134.4,84.9 130.4,92.4 136.1,95.7 &#9;" style="fill: rgb(104, 225, 253);"/>
	<polygon class="st4_data-analysis-1-39 targetColor" points="130.2,117.7 135.8,121 140.1,124.2 134.4,120.9 &#9;" style="fill: rgb(104, 225, 253);"/>
	<path class="st5_data-analysis-1-39" d="M134.2,119.7c0.1,0.2,0.4,1.6,0.7,1.3s1.9,0.4,1.9,0.4l4.4-5.5l-0.6-1.8h-3.9"/>
	<path class="st4_data-analysis-1-39 targetColor" d="M155.3,95.8l0.4-1.4l4.6-2.5v-7.8c0-0.2-4.4,2.6-4.4,2.6l-0.2-0.4c-0.2-1.2-0.7-2.3-1.3-3.4l3.2-6l-4.1-3.1&#10;&#9;&#9;l-3.1,6.1l0,0c-1.1-0.3-2.3-0.2-3.4,0.1v-5.8l-5.9,3.2v6.2c-1.1,1.1-2.2,2.3-3.1,3.6l-3.5-2.2l-4,7.6l3.1,2.6l-0.3,1.3&#10;&#9;&#9;c-0.4,1.3-0.8,2.7-1,4.1l-4.7,2.6v7.8l4.5-2.7c0.2,1.4,0.7,2.8,1.4,4l-3.4,5.7l4.2,3.2l3-5.8h3.7v5.8l5.6-3.4v-5.8&#10;&#9;&#9;c1.3-1.3,2.4-2.7,3.4-4.2l3.4,2.3l4.1-7.8l-3.4-2.5l0.3-1.2C154.8,97.6,155.1,96.7,155.3,95.8z" style="fill: rgb(104, 225, 253);"/>
	<polyline class="st5_data-analysis-1-39" points="165.9,87.3 160.7,84.2 159.4,86.1 161.4,90.3 &#9;"/>
	<polyline class="st4_data-analysis-1-39 targetColor" points="159.1,113.1 155.3,111.5 155.3,109.2 &#9;" style="fill: rgb(104, 225, 253);"/>
	<polygon class="st4_data-analysis-1-39 targetColor" points="146.8,124.2 141.1,120.9 142.6,116.7 147.6,118.2 &#9;" style="fill: rgb(104, 225, 253);"/>
	<polygon class="st4_data-analysis-1-39 targetColor" points="153.4,73.8 159,77 155.9,83.2 152.6,83.2 151.8,77 &#9;" style="fill: rgb(104, 225, 253);"/>
	<ellipse transform="matrix(0.3657 -0.9307 0.9307 0.3657 1.4392 203.3969)" class="st4_data-analysis-1-39 targetColor" cx="149.9" cy="100.6" rx="4.4" ry="2.5" style="fill: rgb(104, 225, 253);"/>
	<polygon class="st4_data-analysis-1-39 targetColor" points="140,88.1 134.4,84.9 130.4,92.4 136.1,95.7 &#9;" style="fill: rgb(104, 225, 253);"/>
	<polygon class="st4_data-analysis-1-39 targetColor" points="130.2,117.7 135.8,121 140.1,124.2 134.4,120.9 &#9;" style="fill: rgb(104, 225, 253);"/>
	<path class="st5_data-analysis-1-39" d="M155.3,95.8l0.4-1.4l4.6-2.5v-7.8c0-0.2-4.4,2.6-4.4,2.6l-0.2-0.4c-0.2-1.2-0.7-2.3-1.3-3.4l3.2-6l-4.1-3.1&#10;&#9;&#9;l-3.1,6.1l0,0c-1.1-0.3-2.3-0.2-3.4,0.1v-5.8l-5.9,3.2v6.2c-1.1,1.1-2.2,2.3-3.1,3.6l-3.5-2.2l-4,7.6l3.1,2.6l-0.3,1.3&#10;&#9;&#9;c-0.4,1.3-0.8,2.7-1,4.1l-4.7,2.6v7.8l4.5-2.7c0.2,1.4,0.7,2.8,1.4,4l-3.4,5.7l4.2,3.2l3-5.8h3.7v5.8l5.6-3.4v-5.8&#10;&#9;&#9;c1.3-1.3,2.4-2.7,3.4-4.2l3.4,2.3l4.1-7.8l-3.4-2.5l0.3-1.2C154.8,97.6,155.1,96.7,155.3,95.8z"/>
	<polyline class="st6_data-analysis-1-39" points="159.1,113.1 155.3,111.5 155.3,109.2 &#9;"/>
	<polygon class="st6_data-analysis-1-39" points="146.8,124.2 141.1,120.9 142.6,116.7 147.6,118.2 &#9;"/>
	<ellipse transform="matrix(0.3657 -0.9307 0.9307 0.3657 1.4392 203.3969)" class="st6_data-analysis-1-39" cx="149.9" cy="100.6" rx="4.4" ry="2.5"/>
	<polygon class="st6_data-analysis-1-39" points="140,88.1 134.4,84.9 130.4,92.4 136.1,95.7 &#9;"/>
	<polygon class="st6_data-analysis-1-39" points="130.2,117.7 135.8,121 140.1,124.2 134.4,120.9 &#9;"/>
	<polyline class="st6_data-analysis-1-39" points="159.1,113.1 155.3,111.5 155.3,109.2 &#9;"/>
	<polygon class="st5_data-analysis-1-39" points="146.8,124.2 141.1,120.9 142.6,116.7 147.6,118.2 &#9;"/>
	<path class="st4_data-analysis-1-39 targetColor" d="M160.9,99l0.4-1.4l4.6-2.5v-7.8c0-0.2-4.4,2.6-4.4,2.6l-0.2-0.4c-0.3-1.2-0.7-2.3-1.4-3.4l3.2-6L159,77l-3,6.2&#10;&#9;&#9;l0,0c-1.1-0.3-2.3-0.2-3.4,0.1v-5.9l-5.9,3.2v6.2c-1.2,1.1-2.2,2.3-3.1,3.6l-3.6-2.3l-4,7.6l3.2,2.5l-0.3,1.3&#10;&#9;&#9;c-0.4,1.3-0.7,2.7-1,4.1l-4.7,2.6v7.8l4.5-2.7c0.2,1.4,0.7,2.8,1.4,4l-3.4,5.7l4.2,3.2l3-5.9h3.7v5.9l5.6-3.4V115&#10;&#9;&#9;c1.3-1.3,2.4-2.7,3.4-4.2l3.4,2.3l4.1-7.8l-3.4-2.5l0.3-1.2C160.4,100.8,160.7,99.9,160.9,99z" style="fill: rgb(104, 225, 253);"/>
	<ellipse transform="matrix(0.3657 -0.9307 0.9307 0.3657 1.4392 203.3969)" class="st5_data-analysis-1-39" cx="149.9" cy="100.6" rx="4.4" ry="2.5"/>
	<polygon class="st5_data-analysis-1-39" points="130.2,117.7 135.8,121 140.1,124.2 134.4,120.9 &#9;"/>
	<polygon class="st4_data-analysis-1-39 targetColor" points="141.1,77.3 146.7,80.6 152.6,77.3 146.9,74.1 &#9;" style="fill: rgb(104, 225, 253);"/>
	<polygon class="st5_data-analysis-1-39" points="141.1,77.3 146.7,80.6 152.6,77.4 146.9,74.1 &#9;"/>
	<polygon class="st4_data-analysis-1-39 targetColor" points="127.6,102.9 133.3,106.2 133.3,113.9 127.6,110.7 &#9;" style="fill: rgb(104, 225, 253);"/>
	<polygon class="st5_data-analysis-1-39" points="127.6,102.9 133.3,106.2 133.3,113.9 127.6,110.7 &#9;"/>
</g>
<g id="plant_data-analysis-1-39">
	<path class="st4_data-analysis-1-39 targetColor" d="M64,234.4c-5.5-0.5-11.3-2.1-15.4-5.9v16.3c0,9.4,7.6,16.9,16.9,17c0,0,0,0,0,0l0,0c9.3,0,16.9-7.6,16.9-16.9&#10;&#9;&#9;v-16.6C76.7,230.6,70.1,235,64,234.4z" style="fill: rgb(104, 225, 253);"/>
	<ellipse class="st7_data-analysis-1-39" cx="65.5" cy="228.4" rx="16.9" ry="9"/>
	<path class="st7_data-analysis-1-39" d="M65.5,230c0,0-11.5-1.7-14.5-20.4C51,209.6,60.8,215.1,65.5,230z"/>
	<path class="st7_data-analysis-1-39" d="M67.2,227.6c0,0-13.2-23.7,0-39.6C71.2,200.8,71.2,214.7,67.2,227.6z"/>
	<path class="st7_data-analysis-1-39" d="M65.5,212.7c0,0-11.5-1.7-14.5-20.3C51,192.3,60.8,197.8,65.5,212.7z"/>
	<path class="st7_data-analysis-1-39" d="M66.9,220.3c0,0-2.9-11.3,13.1-21.3C80,199,78.8,210.1,66.9,220.3z"/>
	<ellipse class="st8_data-analysis-1-39" cx="65.5" cy="228.4" rx="16.9" ry="9"/>
	<path class="st7_data-analysis-1-39" d="M65.5,230c0,0-11.5-1.7-14.5-20.4C51,209.6,60.8,215.1,65.5,230z"/>
	<path class="st7_data-analysis-1-39" d="M67.2,227.6c0,0-13.2-23.7,0-39.6C71.2,200.8,71.2,214.7,67.2,227.6z"/>
	<path class="st7_data-analysis-1-39" d="M65.5,212.7c0,0-11.5-1.7-14.5-20.3C51,192.3,60.8,197.8,65.5,212.7z"/>
	<path class="st7_data-analysis-1-39" d="M66.9,220.3c0,0-2.9-11.3,13.1-21.3C80,199,78.8,210.1,66.9,220.3z"/>
</g>
<g id="data_data-analysis-1-39">
	<ellipse class="st8_data-analysis-1-39" cx="406.5" cy="305.7" rx="9.7" ry="4.5"/>
	<polyline class="st8_data-analysis-1-39" points="416.2,300 416.2,305.7 396.9,305.7 396.9,300 &#9;"/>
	<ellipse class="st9_data-analysis-1-39" cx="406.5" cy="300" rx="9.7" ry="4.5"/>
	<path class="st8_data-analysis-1-39" d="M409.1,216.3v81.7c0,0-2.1,3.7-5,0v-84.4C404.1,213.5,404.5,211.1,409.1,216.3z"/>
	<ellipse class="st8_data-analysis-1-39" cx="311.6" cy="255.8" rx="9.7" ry="4.5"/>
	<polyline class="st8_data-analysis-1-39" points="321.3,250 321.3,255.8 301.9,255.8 301.9,250 &#9;"/>
	<ellipse class="st9_data-analysis-1-39" cx="311.6" cy="250" rx="9.7" ry="4.5"/>
	<path class="st8_data-analysis-1-39" d="M314.1,166.3v81.7c0,0-2.1,3.7-5,0v-84.4C309.1,163.5,309.5,161.1,314.1,166.3z"/>
	<path class="st4_data-analysis-1-39 targetColor" d="M421.4,147.4l-116.6-66c-3-1.7-6.7-0.6-8.4,2.3c-0.5,0.9-0.8,2-0.8,3v71.7c0,2.2,1.2,4.3,3.1,5.4l116.6,66&#10;&#9;&#9;c3,1.7,6.7,0.6,8.4-2.3c0.5-0.9,0.8-2,0.8-3v-71.7C424.5,150.6,423.3,148.5,421.4,147.4z" style="fill: rgb(104, 225, 253);"/>
	<path class="st10_data-analysis-1-39" d="M311.6,155.6c0,0,8.6-33,23.7-24.4s8,43,18.7,42.4s22.8-22.5,32-18.1s9,44.4,20.5,50.6"/>
	<polygon class="st11_data-analysis-1-39" points="388.7,187.1 374.6,159.8 357.2,168.7 347.5,135.9 324.7,151.1 312.1,112.4 313,112.1 325.2,149.6 &#10;&#9;&#9;348,134.4 357.7,167.4 375.1,158.5 389.3,186.2 409.6,185.6 409.6,186.6 &#9;"/>
	
		<ellipse transform="matrix(0.9925 -0.1222 0.1222 0.9925 -19.6738 51.4512)" class="st11_data-analysis-1-39" cx="409.6" cy="186.1" rx="2.6" ry="4.1"/>
	
		<ellipse transform="matrix(0.9925 -0.1222 0.1222 0.9925 -11.3761 39.0442)" class="st11_data-analysis-1-39" cx="312.6" cy="112.3" rx="2.6" ry="4.2"/>
</g>
<g id="screen_data-analysis-1-39">
	<path class="st4_data-analysis-1-39 targetColor" d="M227.2,49.2l-0.9,113.2c0,2.4,1.3,4.7,3.4,5.9l50.7,30c2,1.2,4.5,0.5,5.6-1.4c0.4-0.6,0.6-1.4,0.6-2.1V80.5&#10;&#9;&#9;c0-2.5-1.3-4.8-3.5-6l-49.7-28.8c-2-1.1-4.5-0.5-5.6,1.5C227.4,47.8,227.2,48.5,227.2,49.2z" style="fill: rgb(104, 225, 253);"/>
	<polygon class="st7_data-analysis-1-39" points="274.2,126.2 274.2,169.7 265.2,164.4 265.1,121 &#9;"/>
	<polygon class="st12_data-analysis-1-39" points="259,110.1 259.2,161.3 249.7,155.8 249.7,104.9 &#9;"/>
	<polygon class="st10_data-analysis-1-39" points="243.8,96.3 243.9,152.8 235.5,147.9 235.5,91.3 &#9;"/>
	<path class="st13_data-analysis-1-39" d="M273.4,175.1L273.4,175.1c0,1.2-0.9,2.1-2.1,2.1c-0.4,0-0.7-0.1-1-0.3l-38.8-22.1c-0.7-0.4-1.1-1.1-1.1-1.8&#10;&#9;&#9;l0,0c0-1.1,0.9-2.1,2.1-2.1c0.4,0,0.7,0.1,1,0.3l38.8,22.1C273,173.6,273.4,174.3,273.4,175.1z"/>
	<path class="st13_data-analysis-1-39" d="M281.8,90.1v15.7c0,1.2-1,2.2-2.2,2.2c-0.4,0-0.8-0.1-1.1-0.3l-42.7-24.6c-0.7-0.4-1.1-1.1-1.1-1.9V65.5&#10;&#9;&#9;c0-1.2,1-2.2,2.2-2.2c0.4,0,0.8,0.1,1.1,0.3l42.7,24.6C281.4,88.6,281.8,89.3,281.8,90.1z"/>
	<ellipse transform="matrix(0.9531 -0.3025 0.3025 0.9531 -15.6947 86.785)" class="st10_data-analysis-1-39" cx="272.3" cy="94.1" rx="5.6" ry="6.9"/>
	<path class="st9_data-analysis-1-39" d="M265.5,84.4l-21.8-12.2l-3.1-1.8c-1.1-0.6-2,1-1,1.6l21.8,12.2l3.2,1.8C265.7,86.6,266.6,85,265.5,84.4&#10;&#9;&#9;L265.5,84.4z"/>
	<path class="st9_data-analysis-1-39" d="M264.6,90.5L251,82.9l-1.9-1.1c-0.4-0.3-1-0.1-1.3,0.3c-0.3,0.4-0.1,1,0.3,1.3l13.6,7.6l1.9,1.1&#10;&#9;&#9;C264.7,92.7,265.7,91.1,264.6,90.5L264.6,90.5z"/>
</g>
<g id="character_data-analysis-1-39">
	<path class="st12_data-analysis-1-39" d="M217.4,250.2c-5.4-3.8-11.8-5.8-18.6-4.3c-7.3,1.6-13.6,6.2-21.1,7.3c-1.2,0.2-5.9-0.1-6.6,0.6&#10;&#9;&#9;c-20.7,19.6,37.2,17.5,37.2,17.5c5.6-4.6,10.9-9.1,16.5-13.8C223.1,253.7,220.3,252.2,217.4,250.2z"/>
	<path class="st12_data-analysis-1-39" d="M190.1,278.7c-0.7,19.7-1.4,39.4-2.1,59.2c-0.1,2.2,3.4,2.2,3.5,0c0.7-19.7,1.4-39.5,2.1-59.2&#10;&#9;&#9;C193.7,276.4,190.2,276.4,190.1,278.7z"/>
	<path class="st12_data-analysis-1-39" d="M233.6,310.3C223.1,300,213,289.2,203.4,278c-1.5-1.7-3.9,0.8-2.5,2.5c9.6,11.2,19.7,22,30.2,32.3&#10;&#9;&#9;C232.7,314.4,235.2,311.9,233.6,310.3z"/>
	<path class="st12_data-analysis-1-39" d="M178.1,273.2c-8.2,15.5-15.9,31.2-23.1,47.1c-0.9,2,2.1,3.8,3,1.8c7.2-15.9,15-31.6,23.1-47.1&#10;&#9;&#9;C182.1,273,179.1,271.2,178.1,273.2z"/>
	<path class="st14_data-analysis-1-39" d="M230.1,236.2c0,0,7.5,1.5,9.2,3.2s4.5,8.8,3.7,10.9s-2.9-1.2-3.8-2.6c-1.1-1.4-2.3-2.8-3.5-4.1&#10;&#9;&#9;c-2.5,0.4-5,0-7.3-1"/>
	<path class="st12_data-analysis-1-39" d="M232.6,300.3c1.1-1.1,1.8-2.3,1.4-3.5c-0.7-2.2-3.6-3.1-5.6-3c-2.2,0.1-4.1,1.1-6.2,1.8&#10;&#9;&#9;c-2.1,0.8-4.4,1-6.7,0.8c-0.4-0.1-0.7-0.2-0.9-0.5c-1.3-0.3-2.3-1.2-2.7-2.5l-6.7-2.4c0,0-1.7,14.2-1.6,15.2&#10;&#9;&#9;c0.5,7.6,11.9,3.3,11.9,3.3s0.4-3.5,0.5-3.9s4.5,0.9,6.3,0.6c0.8-0.2,1.6-0.6,2.4-1.1c1.4-0.7,2.7-1.5,4-2.3&#10;&#9;&#9;S231.2,301.1,232.6,300.3z"/>
	<path class="st8_data-analysis-1-39" d="M207.6,248c-2.5,0.2-5,0.6-7.5,0.9c1,16.1,2.2,32.2,3.5,48.2c6.5,2.7,9.2,1.4,13.2-2.7&#10;&#9;&#9;c0.8-15.3,2.1-31.4,2.1-46.9C215.1,247.8,211.3,247.9,207.6,248z"/>
	<path class="st8_data-analysis-1-39" d="M180.5,243.6c0,0-1.1,17.6,7.8,21.5s27,2,35.9-3.3c4.6-2.8,9.5-5.2,14.5-7.2c0,0,2.3-7.7-3.3-11&#10;&#9;&#9;s-17.9-7.4-28.8,0"/>
	<path class="st14_data-analysis-1-39" d="M219.3,195.3c0.3-0.7,0.6-1.3,1-1.9c0,0,0,0.1,0.1,0.1c0,0.1,0.2,0.2,0.3,0.2c0.1,0,0.1-0.1,0.2-0.1l0.7-1.1&#10;&#9;&#9;c0,0.1,0,0.3,0,0.4c0.1,0.5,0.6,0.9,1.2,0.9c0.6,0,1-0.5,1-1.1c0-0.1,0-0.1,0-0.2c0.1-0.1,0.2-0.3,0.3-0.4c0,0.1,0,0.2,0,0.3&#10;&#9;&#9;c0.2,0.5,0.7,0.8,1.2,0.6c0.1,0,0.3-0.1,0.4-0.2c0.1-0.1,0.2-0.2,0.4-0.3c0.2,0.1,0.4,0.1,0.6,0c0.9-0.3,1.8-0.7,2.7-1.1&#10;&#9;&#9;c-0.2-0.1-0.3-0.3-0.2-0.5c0,0,0-0.1,0.1-0.1c0.9-1,2.2-1.4,3.3-2.3c0,0,0.1-0.1,0.1-0.1l0.1-0.1c0.3-0.9,0.2-1.8-0.2-2.6&#10;&#9;&#9;c0.6-0.7,0.8-1.6,0.6-2.4c-0.1,0-0.2,0-0.2-0.1c-0.2-0.1-0.3-0.3-0.4-0.5c-0.2-0.3-0.3-0.5-0.4-0.9c-0.1-0.2,0-0.3,0.1-0.4&#10;&#9;&#9;c-0.4-0.6-0.9-1.1-1.4-1.6c1.1-1.8,1.6-3.9,1.5-6.1c0-0.5-0.5-0.9-1-0.9c-0.3,0-0.6,0.2-0.7,0.4c-0.4,0.7-0.8,1.4-1.1,2.1&#10;&#9;&#9;c-0.1,0.1-0.2,0.2-0.3,0.3c-1.8,3.7-3.8,7.3-6,10.8c-0.4,0.6-4.9,6.9-4.4,7.1C218.4,193.7,214.7,202.4,219.3,195.3z"/>
	<path class="st14_data-analysis-1-39" d="M219.8,193.3c1-0.8,1.8-1.7,2.5-2.8c0.5-0.9,1.7-1.3,2.6-0.8c0,0,0,0,0.1,0c0.1-0.5,0.1-1,0.1-1.5&#10;&#9;&#9;c0-2.6,4.1-2.6,4.1,0c0.1,2-0.5,4.1-1.6,5.8c-1.2,1.6-2.7,2.9-4.4,3.9c-1,0.6-2.3,0.2-2.8-0.8c-0.1-0.2-0.2-0.5-0.3-0.8&#10;&#9;&#9;c-0.1,0-0.1-0.1-0.2-0.1C219,195.4,219,194.2,219.8,193.3C219.7,193.3,219.8,193.3,219.8,193.3z"/>
	<path class="st8_data-analysis-1-39" d="M226.3,194.8c1.7-1.1,2.9-2.8,3.4-4.8c0.1,0.1,0.2,0.2,0.3,0.1c0,0,0,0,0,0l1.6-1.1c0.3-0.2,0.6-0.4,0.9-0.7&#10;&#9;&#9;c0.6-0.8,0.1-1.6-0.2-2.4c0,0,0-0.1-0.1-0.1c0.1-0.1,0.2-0.3,0.2-0.4c0.4-0.6,0.6-1.3,0.6-2c-0.1-0.7-0.8-1.2-1.1-1.8&#10;&#9;&#9;c0.1-0.7-0.3-1.4-0.9-1.7c-0.9-0.4-1.3,0.3-1.8,0.9c-1,1.3-1.9,2.7-2.8,4.2c-0.2,0.3,0.3,0.5,0.4,0.2c0.5-0.8,1-1.5,1.5-2.3&#10;&#9;&#9;c0.4-0.6,1.1-2,1.6-2.3c1.8-1,1.4,1.4,1.2,2.1c-0.2,0.4-0.4,0.7-0.6,1.1c-0.4,0.8-0.9,1.6-1.4,2.4c0,0,0,0,0,0.1c0,0.1,0,0.1,0,0.2&#10;&#9;&#9;c0.8,3-0.4,6.2-3.1,7.9C225.8,194.6,226,195,226.3,194.8z M230,186.6c-0.1-0.1-0.2-0.1-0.3,0c0-0.1,0-0.1,0-0.2&#10;&#9;&#9;c0.9-1.3,1.6-2.7,2.2-4.1c0.1,0.2,0.2,0.3,0.4,0.5c0.4,0.5,0.4,1.2,0.1,1.7C232,185.3,231.1,187.2,230,186.6z M229.8,189.7&#10;&#9;&#9;c0.2-0.9,0.2-1.7,0-2.6c0.9,0.4,1.6-0.1,2.1-0.9c0.1,0.3,0.3,0.7,0.4,1c0.1,0.5-0.1,0.9-0.5,1.1&#10;&#9;&#9;C231.1,188.8,230.4,189.2,229.8,189.7L229.8,189.7z"/>
	<path class="st12_data-analysis-1-39" d="M197.4,203c0,0,11.8,0.6,14.9-2.3s7.5-11.7,7.5-11.7s8.1,5.2,8.5,8.2s-8.5,17.6-12.5,18.6"/>
	<path class="st15_data-analysis-1-39" d="M197.4,203c0,0,11.8,0.6,14.9-2.3s7.5-11.7,7.5-11.7s8.1,5.2,8.5,8.2s-8.5,17.6-12.5,18.6"/>
	<path class="st12_data-analysis-1-39" d="M253,311.4c1.1-1.1,1.8-2.3,1.4-3.5c-0.7-2.2-3.6-3.1-5.6-3c-2.2,0.1-4.1,1.1-6.2,1.7&#10;&#9;&#9;c-2.1,0.8-4.4,1.1-6.7,0.8c-0.4-0.1-0.7-0.2-0.9-0.5c-1.3-0.3-2.3-1.2-2.7-2.5l-6.7-2.4c0,0-1.7,14.2-1.6,15.2&#10;&#9;&#9;c0.5,7.6,11.9,3.3,11.9,3.3s0.4-3.5,0.5-3.9s4.5,0.9,6.3,0.6c0.8-0.2,1.6-0.6,2.3-1.1c1.4-0.7,2.7-1.5,4-2.3S251.7,312.2,253,311.4&#10;&#9;&#9;z"/>
	<path class="st8_data-analysis-1-39" d="M227.2,244.1c-2.3-1.1-4.7-1-7.5-1c0.4,5.7,0.2,7.7,0.5,13.4l0.1,1.5c1.1,16.8,2.3,33.5,3.7,50.3&#10;&#9;&#9;c6.5,2.7,9.2,1.4,13.2-2.7c0.9-17.8,2.6-36.7,1.9-54.4C235.3,247.4,232,246.3,227.2,244.1z"/>
	<path class="st12_data-analysis-1-39" d="M180.3,240c0,0.4,0.1,1.9,0.1,3.6c3.7,4.8,8.1,7.6,15.2,7.4c5.7-0.2,10.4-2.6,14.9-5.7&#10;&#9;&#9;c-0.6-10.3-2.2-27.9-4.8-40.2c-0.2-1-2.9-1.7-3.7-2.2c-1.9-1-0.8-2.8-2.6-3.8c-2.6-1.5-5.4-2.9-8.2-4h-0.1&#10;&#9;&#9;c-4.5-0.1-12.3,3.4-12.8,9.5c-0.7,9.3,0.3,15,1,24.2C179.7,232.6,180,236.4,180.3,240z"/>
	<path class="st14_data-analysis-1-39" d="M196.1,177.5c0.6,0.1,5.6,11.7,3.6,18.8s-13.9-0.2-16.9-5.6S184.8,174.6,196.1,177.5z"/>
	<path class="st8_data-analysis-1-39" d="M195.9,179.1c0,0,0,3.8-3.3,5s-6.1,2.1-5.9,3.6s6.1-0.2,6.1,3.3c0,2.4-0.3,4.8-0.9,7.1&#10;&#9;&#9;c-0.4,1.7-10.4-3.6-13.7-12.6s5-11.5,5.4-11.5s1.1-2.5,5.2-3.4s5.2,0.7,5.2,0.7s2.7-1.9,5.9,0.6c3.8,3,2.8,8.4-1.4,10.6&#10;&#9;&#9;L195.9,179.1z"/>
	<path class="st12_data-analysis-1-39" d="M198,215c0,0,12.4,22.7,19.3,24.6c4.9,1.3,10,2.1,15.1,2.5c0,0,0.9-6.3,0-9c0,0-11-5-12.1-7.9&#10;&#9;&#9;s-10.3-23.8-20.9-26"/>
	<path class="st8_data-analysis-1-39" d="M209.4,232.6c-0.8-1-9.4-10.7-9.4-10.7l10.4,21.2L209.4,232.6z"/>
	<path class="st4_data-analysis-1-39 targetColor" d="M224,257.1c-3.2,4.5-7.8,7.9-13.1,9.6c-7.4,2.2-18.1,1.2-22-6.5c-7.1-14-0.4-31.6-7.9-45.3&#10;&#9;&#9;c-1.9-3.4-4.9-6.3-8.6-7.1c-4.8-1.1-8.1,2.6-9.9,6.8c-3.1,7.7-3,17.2-2.9,25.4c0,6.6,0.5,13.2,1.4,19.7c0,0,4.5,27.4,39.7,20&#10;&#9;&#9;c6.1-1.1,11.9-3.3,17.3-6.4c2.7-1.6,5.1-3.7,7-6.2C227.3,264,225.9,260.3,224,257.1z" style="fill: rgb(104, 225, 253);"/>
</g>
</svg>