<svg width="1400.0000000000002" height="800" xmlns="http://www.w3.org/2000/svg" version="1.1" baseProfile="full">
 <!-- 三角形 -->

 <!--  <circle cx="1200" cy="600" r="30" stroke="rgb(241, 243, 244)" fill="rgb(241, 243, 244)">-->
 <!--    <animateMotion path="M 0 0 L -20 40 Z" dur="9s" repeatCount="indefinite"/>-->
 <!--  </circle>-->
 <g>
  <title>Layer 1</title>
  <rect transform="rotate(-47 1336.43 629.286)" x="1261.42863" y="554.28571" rx="40" ry="40" width="150" height="150" stroke="rgb(129, 201, 149)" fill="rgb(129, 201, 149)" id="svg_1"/>
  <path transform="rotate(24 1310.06 84.2257)" stroke="null" d="m1088.80957,186.00479a221.24995,234.87477 0 1 1 442.4999,0q0,31.31664 -29.49999,31.31664l-191.74996,0l-191.74996,0q-29.49999,0 -29.49999,-31.31664" fill="#ffc2a4" id="svg_2"/>
  <circle cx="164.61905" cy="159.19047" r="180" stroke="#85FFBD" fill="#85FFBD" id="svg_3"/>
  <path transform="rotate(-20 278.214 618.179)" d="m225.71428,667.42857l105,0q5,-2 0,-10l-47,-87q-3,-3 -6,0l-52,87q-5,8 0,10" fill="#ffe427" id="svg_4"/>
  <path d="m101.52383,666.19048a40,40 0 1 1 80,0l0,80a40,40 0 1 1 -80,0l0,-80z" fill="#5fad00" id="svg_5" transform="rotate(-34 141.524 706.191)"/>
  <rect id="svg_8" height="1" width="1" y="641" x="806" stroke="rgb(129, 201, 149)" fill="#68e1fd"/>
  <path id="svg_14" d="m477.605,297.82858l0.71429,-0.745l0.71429,0.745l-0.71429,0.745l-0.71429,-0.745z" stroke="null" fill="#68e1fd"/>
  <path id="svg_15" d="m611.21926,347.57858l1.42858,-0.745l1.42858,0.745l-1.42858,0.745l-1.42858,-0.745z" stroke="null" fill="#68e1fd"/>
  <rect transform="rotate(-79 128.571 485.714)" rx="10" id="svg_17" height="117.14286" width="117.14286" y="427.14285" x="70" stroke="null" fill="#68e1fd"/>
 </g>
</svg>