<?xml version="1.0" standalone="no"?>
<!DOCTYPE svg PUBLIC "-//W3C//DTD SVG 20010904//EN"
 "http://www.w3.org/TR/2001/REC-SVG-20010904/DTD/svg10.dtd">
<svg version="1.0" xmlns="http://www.w3.org/2000/svg"
 width="500.000000pt" height="500.000000pt" viewBox="0 0 500.000000 500.000000"
 preserveAspectRatio="xMidYMid meet">

<g transform="translate(0.000000,500.000000) scale(0.100000,-0.100000)"
fill="#000000" stroke="none">
<path d="M1055 4989 c-490 -63 -893 -417 -1014 -892 -41 -158 -42 -218 -38
-1662 3 -1258 5 -1397 20 -1465 56 -248 163 -447 332 -615 175 -176 398 -292
645 -336 111 -20 2889 -20 3000 0 247 44 470 160 645 336 176 175 292 398 336
645 20 111 20 2889 0 3000 -20 111 -64 243 -116 344 -166 327 -459 548 -835
633 -68 15 -205 17 -1490 19 -789 1 -1446 -2 -1485 -7z m2966 -1524 c69 -24
102 -63 143 -168 43 -112 98 -306 125 -446 18 -90 21 -139 21 -395 -1 -216
-18 -606 -29 -663 -1 -5 -66 -3 -105 4 -34 5 -46 16 -103 92 l-64 86 5 70 c2
39 10 126 16 195 7 75 10 215 7 350 -4 197 -8 237 -30 322 -29 113 -66 230
-77 241 -14 15 -69 -22 -150 -101 -71 -68 -80 -81 -80 -113 0 -62 -18 -99 -48
-99 -15 0 -32 -4 -38 -8 -8 -5 -13 -95 -17 -287 -4 -195 -11 -315 -24 -395
l-18 -115 -49 -3 c-46 -3 -52 -1 -93 40 -24 24 -60 67 -80 96 l-37 52 12 143
c17 195 15 475 -4 653 -8 82 -17 150 -19 152 -2 2 -29 -4 -60 -13 -45 -15 -66
-29 -106 -74 -58 -64 -147 -194 -180 -263 -20 -42 -27 -48 -53 -48 -60 0 -58
15 -65 -396 l-6 -379 -25 -12 c-66 -31 -76 -29 -139 32 -102 98 -98 72 -105
590 -4 248 -11 511 -15 585 -5 78 -5 139 0 145 15 15 136 -11 206 -45 l63 -31
27 31 c33 39 123 107 167 125 54 23 155 29 252 15 103 -15 151 -33 217 -84
l47 -36 78 54 c42 30 106 71 142 91 64 35 66 36 155 31 50 -3 111 -12 136 -21z
m-1903 -70 c150 -36 211 -86 197 -163 -9 -51 -62 -214 -92 -287 -30 -72 -201
-353 -587 -965 -152 -243 -443 -697 -452 -709 -1 -1 -27 8 -57 22 -42 19 -71
44 -125 108 l-71 83 45 60 c81 111 290 430 338 515 l47 85 -109 110 c-119 121
-162 183 -351 516 -111 194 -298 557 -290 563 7 6 199 -12 238 -23 20 -5 56
-24 79 -41 46 -34 41 -23 209 -392 76 -168 112 -233 184 -335 49 -70 99 -140
112 -156 l23 -28 55 88 c92 146 124 203 192 339 79 158 100 208 127 305 12 41
39 130 61 198 l41 122 61 0 c34 0 90 -7 125 -15z"/>
</g>
</svg>
